<svg width="13" height="12" viewBox="0 0 13 12" fill="none" xmlns="http://www.w3.org/2000/svg">
<path d="M12.1973 1.81947C12.2976 1.72266 12.3776 1.60685 12.4327 1.47878C12.4878 1.35071 12.5168 1.21295 12.5181 1.07354C12.5194 0.934136 12.4929 0.79587 12.4402 0.666813C12.3874 0.537756 12.3095 0.420493 12.211 0.321866C12.1125 0.223239 11.9953 0.145224 11.8663 0.0923716C11.7373 0.0395194 11.599 0.0128894 11.4596 0.0140346C11.3202 0.0151799 11.1824 0.0440777 11.0543 0.0990422C10.9262 0.154007 10.8103 0.233937 10.7134 0.334169L6.50526 4.54089L2.29854 0.334169C2.20242 0.231015 2.08651 0.148277 1.95772 0.0908924C1.82893 0.0335075 1.68989 0.00265073 1.54892 0.000163397C1.40795 -0.00232394 1.26791 0.0236092 1.13718 0.0764151C1.00645 0.129221 0.887686 0.207818 0.787986 0.307518C0.688287 0.407217 0.60969 0.525976 0.556884 0.656711C0.504078 0.787445 0.478145 0.927478 0.480632 1.06845C0.483119 1.20943 0.513976 1.34846 0.571361 1.47725C0.628746 1.60604 0.711484 1.72195 0.814638 1.81807L5.01856 6.02619L0.811839 10.2329C0.626379 10.4319 0.525413 10.6952 0.530212 10.9672C0.535011 11.2392 0.645201 11.4987 0.837566 11.6911C1.02993 11.8834 1.28945 11.9936 1.56146 11.9984C1.83346 12.0032 2.09671 11.9023 2.29574 11.7168L6.50526 7.51009L10.712 11.7182C10.911 11.9037 11.1743 12.0046 11.4463 11.9998C11.7183 11.995 11.9778 11.8848 12.1701 11.6925C12.3625 11.5001 12.4727 11.2406 12.4775 10.9686C12.4823 10.6966 12.3813 10.4333 12.1959 10.2343L7.99196 6.02619L12.1973 1.81947Z" fill="black"/>
</svg>
