<svg width="20" height="19" viewBox="0 0 20 19" fill="none" xmlns="http://www.w3.org/2000/svg">
<line x1="3.39468" y1="0.69303" x2="17.3947" y2="18.693" stroke="#585858"/>
<path d="M19.6488 8.46488C19.6204 8.39992 18.9262 6.86326 17.3758 5.31578C15.9373 3.88156 13.4657 2.17084 9.84601 2.17084C6.22631 2.17084 3.75476 3.88156 2.31622 5.31578C0.765874 6.86326 0.0716382 8.39742 0.043268 8.46488C0.0147412 8.52885 0 8.59808 0 8.6681C0 8.73812 0.0147412 8.80736 0.043268 8.87132C0.0716382 8.93546 0.765874 10.4721 2.31622 12.0196C3.75476 13.4538 6.22631 15.1637 9.84601 15.1637C13.4657 15.1637 15.9373 13.4538 17.3758 12.0196C18.9262 10.4721 19.6204 8.93795 19.6488 8.87132C19.6773 8.80736 19.692 8.73812 19.692 8.6681C19.692 8.59808 19.6773 8.52885 19.6488 8.46488ZM9.84601 14.1643C7.22761 14.1643 4.9413 13.2131 3.04968 11.3383C2.25671 10.5517 1.58569 9.65144 1.05875 8.66727C1.58554 7.68325 2.25658 6.78326 3.04968 5.99707C4.9413 4.12143 7.22761 3.17029 9.84601 3.17029C12.4644 3.17029 14.7507 4.12143 16.6423 5.99707C17.4354 6.78326 18.1065 7.68325 18.6333 8.66727C18.1017 9.68421 15.4366 14.1643 9.84601 14.1643ZM9.84601 4.83604C9.08686 4.83604 8.34476 5.06074 7.71356 5.48172C7.08235 5.9027 6.59038 6.50106 6.29986 7.20112C6.00935 7.90119 5.93334 8.67152 6.08144 9.4147C6.22955 10.1579 6.59511 10.8406 7.13191 11.3764C7.66871 11.9122 8.35263 12.2771 9.09719 12.4249C9.84176 12.5727 10.6135 12.4968 11.3149 12.2069C12.0162 11.9169 12.6157 11.4258 13.0375 10.7958C13.4592 10.1657 13.6843 9.42501 13.6843 8.66727C13.683 7.65157 13.2782 6.67785 12.5587 5.95964C11.8391 5.24143 10.8636 4.83736 9.84601 4.83604ZM9.84601 11.499C9.2849 11.499 8.73639 11.333 8.26985 11.0218C7.8033 10.7106 7.43967 10.2684 7.22495 9.75094C7.01022 9.2335 6.95404 8.66413 7.0635 8.11482C7.17297 7.56551 7.44317 7.06093 7.83994 6.6649C8.2367 6.26887 8.74221 5.99917 9.29254 5.8899C9.84287 5.78064 10.4133 5.83672 10.9317 6.05105C11.4501 6.26538 11.8932 6.62833 12.2049 7.09402C12.5166 7.5597 12.683 8.1072 12.683 8.66727C12.683 9.4183 12.3841 10.1386 11.8521 10.6696C11.32 11.2007 10.5984 11.499 9.84601 11.499Z" fill="#585858"/>
</svg>
