<svg xmlns="http://www.w3.org/2000/svg" viewBox="0 0 48 60" x="0px" y="0px"><path d="M23.8691,35.3962c-5.9887,0-11.7841-3.1514-17.22751-9.3682l-.00049-.001c-.99853-1.1426-1.01025-2.9326-.02588-4.0762,2.4043-2.7939,8.91798-9.2959,17.44528-9.332,.0245,0,8.6838-.8188,17.3008,9.3682,.9806,1.1592,1.0212,2.8638,.0264,4.0762-2.2039,2.6859-9.0709,9.4143-17.5186,9.333Zm-15.72263-10.6866c5.04643,5.7647,10.33643,8.6997,15.72363,8.6866,7.6367-.0187,13.9722-6.1991,16.002-8.6377,.3256-.3912,.3252-1.0655-.0147-1.4532-5.0469-5.7646-10.3531-8.6928-15.7881-8.6865-7.7046,.009-13.7129,6.0508-15.93845,8.6367-.33203,.3858-.32471,1.0655,.01611,1.4551l-.00049-.001Zm15.85543,4.4395c-2.8354,0-5.1425-2.3067-5.1425-5.1416,0-2.8359,2.3071-5.1426,5.1425-5.1426,2.835,0,5.1416,2.3067,5.1416,5.1426,0,2.8349-2.3066,5.1416-5.1416,5.1416Zm0-8.2842c-1.7329,0-3.1425,1.4102-3.1425,3.1426s1.4096,3.1416,3.1425,3.1416c1.7325,0,3.1416-1.4092,3.1416-3.1416s-1.4091-3.1426-3.1416-3.1426Z"/><text x="0" y="63" fill="#000000" font-size="5px" font-weight="bold" font-family="'Helvetica Neue', Helvetica, Arial-Unicode, Arial, Sans-serif">Created by Jessigue</text><text x="0" y="68" fill="#000000" font-size="5px" font-weight="bold" font-family="'Helvetica Neue', Helvetica, Arial-Unicode, Arial, Sans-serif">from the Noun Project</text></svg>